<svg version="1.2" xmlns="http://www.w3.org/2000/svg" viewBox="0 0 1722 727" width="1722" height="727">
	<title>EPIK VETOR MARROM</title>
	<style>
		tspan { white-space:pre } 
		.s0 { fill: #ba896c } 
		.s1 { fill: #a17053 } 
		.s2 { fill: #ba8b6b } 
		.t3 { font-size: 69px;fill: #c08b6c;font-weight: 500;font-family: "Raleway-Medium", "Raleway" } 
	</style>
	<g id="Camada 1">
		<g id="&lt;Group&gt;">
			<path id="&lt;Path&gt;" class="s0" d="m645.9 340.8q-19.6 26.3-41.4 37.2c26.1-71.4 19.5-153.7-21.4-220.7 80.2 87.4 98.6 214.8 52.1 325.6q21.7-65.6 10.7-142.1z"/>
		</g>
		<g id="&lt;Group&gt;">
			<path id="&lt;Path&gt;" class="s1" d="m173.3 419.3c-71.4-26.2-117.4-92.4-118.2-170.4 26.1-71.4 85.1-131.9 152.8-167.7-57.5 34.3-96.1 91.9-101.8 160.4-11.6 64.1 14 133.3 67.2 177.7z"/>
		</g>
		<g id="&lt;Group&gt;">
			<path id="&lt;Path&gt;" class="s1" d="m191.6 602.3c39.9-1.9 71.2-8 105.6-29.1 71.2-43.7 87.7-138.3 61.2-214.1-14.7-41.9-65.3-133.3-200.3-124.8 46.9 3.9 88.5 26 121.4 55.2 38.2 33.8 54.7 91 30 136.2-29.8 45.9-84.4 64.2-134 45.3-72.9-36.4-119.6-107.7-130.6-184.2-26.8 102.8 4.6 212.7 73.2 291.3 8.5 7.7 17.1 15.4 25.8 22.8 15.8 3.8 31.3 2.2 47.7 1.4z"/>
		</g>
		<g id="&lt;Group&gt;">
			<path id="&lt;Path&gt;" class="s2" d="m635.8 378.7c-25.4 76.5-95.3 133.4-176.1 150.3 120.8-64.3 173.8-202 119.8-324.3-48.9-123.1-187.4-181.2-311.9-142.5 76.5-11 154.5 24.6 195.3 91.6 40.1 61.9 36.6 145.7-11.4 209.8 50.2-12.4 81.5-48.1 90.2-96.2 5.2 72.1-31.2 145-93 185.1 5.7-68.5-24.2-131.8-72.3-177 10.2-1.4 45.9-11.4 50.2-17.2-5.8-4.4-22.6-7.5-28.4-11.9-27.7-11.6-39-19.6-71.1-32.6-54.3-22.1-157 3-170 20.4q0.5 0.1 1 0.1c135-8.5 185.6 82.9 200.3 124.8 26.5 75.8 10 170.4-61.2 214.1-34.4 21.1-65.7 27.2-105.6 29.1-16.4 0.8-31.9 2.4-47.7-1.4 21.9 18.6 45 35.4 72.6 46.3 139.2 63.2 299.4 19.4 386-102.4-23.3 19-47.4 32.9-76.5 47.5 59.7-55.5 100.4-134.2 109.8-213.6z"/>
		</g>
		<g id="&lt;Group&gt;">
			<g id="&lt;Group&gt;">
				<path id="&lt;Compound Path&gt;" class="s0" d="m958.7 495.5c-1.7 18.4-17.1 32.3-35.5 32.3h-155.1l2.6-100.5-2.6-233.4h188l2.1 4.2c-1.7 18.2-17.2 32-35.5 31.7l-46.3-1-66.1 1.1-1.1 109.4 62.6 1 55.2-1.6 3.1 3.7c-2.1 18.3-17.7 32-36.2 31.7l-25.8-0.5-59.4 0.6-0.5 49.5 1.6 69.2 66.1 0.5 80.2-2z"/>
				<path id="&lt;Compound Path&gt;" fill-rule="evenodd" class="s0" d="m1196.8 218.7q26.5 25.3 26.5 72.6 0 55.8-33 87.6-33.1 31.7-91.4 31.7h-39.6v13.1l2.1 104.1c-23.2 0-41.7-19-41.1-42.1l1.5-58.4-2.6-233.4 102.1-0.5q48.9 0 75.5 25.3zm-33.1 132q16.9-20.8 16.9-55.7 0-64.6-68.7-67.2l-50.5 1.6-1.6 146.3 54.7 1.1q32.3-5.2 49.2-26.1z"/>
				<path id="&lt;Compound Path&gt;" class="s0" d="m1330.1 423.7l1.3 61.9c0.4 23.2-18.2 42.2-41.4 42.2l2.6-100.5-2.1-190.6c-0.3-23.6 18.7-42.8 42.2-42.8z"/>
				<path id="&lt;Compound Path&gt;" class="s0" d="m1469.7 423.7l1.6 104.1c-22.6 0-40.9-18.5-40.5-41.1l0.9-59.4-1.3-191.7c-0.1-23 18.4-41.7 41.4-41.7zm51.6-72.9q69.2 89.6 144.8 168.3l-0.6 5.2q-15.6 4.7-39 8.3l-5.2-2.6q-82.3-93.2-143.8-177.1v-3.1l111.5-126.6c13.1-18.3 34.2-29.2 56.7-29.2h11z"/>
			</g>
		</g>
		<text id="PRODUTOS DE ESTÉTICA
" style="transform: matrix(1,0,0,1,760.959,643.765)" >
			<tspan x="0" y="0" class="t3" dx="0 5 5 5 5 5 5 5 5 5 5 5 5 5 5 5 5 5 5 5 5" >PRODUTOS DE ESTÉTICA
</tspan>
		</text>
	</g>
</svg>